<svg width="49" height="48" viewBox="0 0 49 48" fill="none" xmlns="http://www.w3.org/2000/svg">
<path d="M1 24C1 11.0213 11.5213 0.5 24.5 0.5C37.4787 0.5 48 11.0213 48 24C48 36.9787 37.4787 47.5 24.5 47.5C11.5213 47.5 1 36.9787 1 24Z" fill="#1D2525"/>
<path d="M1 24C1 11.0213 11.5213 0.5 24.5 0.5C37.4787 0.5 48 11.0213 48 24C48 36.9787 37.4787 47.5 24.5 47.5C11.5213 47.5 1 36.9787 1 24Z" stroke="url(#paint0_linear_557_37061)"/>
<path d="M32.8332 28.0999V30.5999C32.8341 30.832 32.7866 31.0617 32.6936 31.2744C32.6006 31.487 32.4643 31.6779 32.2933 31.8348C32.1222 31.9917 31.9203 32.1112 31.7005 32.1855C31.4806 32.2599 31.2477 32.2875 31.0165 32.2666C28.4522 31.988 25.989 31.1117 23.8249 29.7083C21.8114 28.4288 20.1043 26.7217 18.8249 24.7083C17.4165 22.5343 16.5401 20.0591 16.2665 17.4833C16.2457 17.2528 16.2731 17.0206 16.3469 16.8013C16.4208 16.582 16.5395 16.3805 16.6955 16.2096C16.8515 16.0387 17.0414 15.9022 17.253 15.8087C17.4647 15.7152 17.6935 15.6668 17.9249 15.6666H20.4249C20.8293 15.6626 21.2214 15.8058 21.528 16.0695C21.8346 16.3332 22.0349 16.6995 22.0915 17.0999C22.197 17.9 22.3927 18.6855 22.6749 19.4416C22.787 19.7399 22.8112 20.064 22.7448 20.3757C22.6783 20.6873 22.5239 20.9733 22.2999 21.1999L21.2415 22.2583C22.4278 24.3445 24.1552 26.072 26.2415 27.2583L27.2999 26.1999C27.5264 25.9759 27.8125 25.8215 28.1241 25.755C28.4358 25.6885 28.7599 25.7128 29.0582 25.8249C29.8143 26.107 30.5998 26.3027 31.3999 26.4083C31.8047 26.4654 32.1744 26.6693 32.4386 26.9812C32.7029 27.2931 32.8433 27.6912 32.8332 28.0999Z" stroke="#FAF3EC" stroke-width="2" stroke-linecap="round" stroke-linejoin="round"/>
<defs>
<linearGradient id="paint0_linear_557_37061" x1="27.5" y1="48" x2="0.500002" y2="2.5" gradientUnits="userSpaceOnUse">
<stop stop-color="#161616"/>
<stop offset="1" stop-color="#9E9E9E"/>
</linearGradient>
</defs>
</svg>
